<?xml version="1.0" standalone="no"?>
<!DOCTYPE svg PUBLIC "-//W3C//DTD SVG 20010904//EN"
 "http://www.w3.org/TR/2001/REC-SVG-20010904/DTD/svg10.dtd">
<svg version="1.0" xmlns="http://www.w3.org/2000/svg"
 width="225.000000pt" height="225.000000pt" viewBox="0 0 225.000000 225.000000"
 preserveAspectRatio="xMidYMid meet">

<g transform="translate(0.000000,225.000000) scale(0.100000,-0.100000)"
fill="#000000" stroke="none">
<path d="M875 2224 c-227 -35 -413 -98 -490 -166 -79 -70 -79 -67 -135 -503
l-40 -310 0 -476 0 -477 23 -6 c12 -3 46 -6 75 -6 l52 0 0 -37 c0 -21 3 -69 7
-106 5 -58 11 -73 35 -98 26 -26 37 -29 90 -29 54 0 63 3 93 33 31 31 33 36
40 140 l7 107 494 0 494 0 1 -22 c0 -13 4 -63 8 -112 7 -83 10 -91 40 -118 26
-23 40 -28 86 -28 99 0 133 53 134 213 l1 57 53 0 c28 0 62 3 75 6 l22 6 0
477 0 476 -40 310 c-55 423 -57 433 -130 499 -117 106 -455 187 -763 185 -78
-1 -182 -8 -232 -15z m670 -174 c24 -27 11 -71 -25 -81 -14 -4 -191 -7 -395
-7 -203 0 -381 3 -395 7 -36 10 -49 54 -25 81 18 19 29 20 420 20 391 0 402
-1 420 -20z m215 -213 c14 -7 30 -24 37 -37 13 -27 83 -504 83 -564 0 -23 -7
-43 -20 -56 -20 -20 -33 -20 -737 -20 -805 0 -753 -5 -753 73 0 62 70 539 83
567 24 50 19 50 672 50 472 0 616 -3 635 -13z m-1184 -1040 c64 -58 55 -152
-19 -197 -80 -49 -187 9 -187 102 0 79 48 127 128 128 34 0 49 -6 78 -33z
m1244 18 c37 -19 60 -63 60 -115 0 -32 -7 -48 -33 -76 -82 -90 -226 -26 -214
96 10 88 105 137 187 95z"/>
</g>
</svg>
